<?xml version="1.0" encoding="UTF-8" standalone="no"?>
<!-- Created with Inkscape (http://www.inkscape.org/) -->

<svg
   xmlns:dc="http://purl.org/dc/elements/1.1/"
   xmlns:cc="http://creativecommons.org/ns#"
   xmlns:rdf="http://www.w3.org/1999/02/22-rdf-syntax-ns#"
   xmlns:svg="http://www.w3.org/2000/svg"
   xmlns="http://www.w3.org/2000/svg"
   xmlns:inkscape="http://www.inkscape.org/namespaces/inkscape"
   version="1.1"
   width="200"
   height="187.5"
   id="svg2"
   xml:space="preserve"><metadata
     id="metadata8"><rdf:RDF><cc:Work
         rdf:about=""><dc:format>image/svg+xml</dc:format><dc:type
           rdf:resource="http://purl.org/dc/dcmitype/StillImage" /></cc:Work></rdf:RDF></metadata><defs
     id="defs6"><clipPath
       id="clipPath18"><path
         d="M 0,1500 0,0 l 5455.74,0 0,1500 L 0,1500 z"
         inkscape:connector-curvature="0"
         id="path20" /></clipPath></defs><g
     transform="matrix(1.25,0,0,-1.25,0,187.5)"
     id="g10"><g
       transform="scale(0.1,0.1)"
       id="g12"><g
         id="g14"><g
           clip-path="url(#clipPath18)"
           id="g16"><path
             d="m 690.895,850.703 90.75,0 22.543,31.035 0,243.122 -135.829,0 0,-243.141 22.536,-31.016"
             inkscape:connector-curvature="0"
             id="path36"
             style="fill:#8a4182;fill-opacity:1;fill-rule:nonzero;stroke:none" /><path
             d="m 632.395,742.258 28.039,86.304 -22.551,31.04 -231.223,75.128 -41.976,-129.183 231.257,-75.137 36.454,11.848"
             inkscape:connector-curvature="0"
             id="path38"
             style="fill:#8a4182;fill-opacity:1;fill-rule:nonzero;stroke:none" /><path
             d="m 717.449,653.105 -73.41,53.36 -36.488,-11.875 -142.903,-196.692 109.883,-79.828 142.918,196.703 0,38.332"
             inkscape:connector-curvature="0"
             id="path40"
             style="fill:#8a4182;fill-opacity:1;fill-rule:nonzero;stroke:none" /><path
             d="m 828.52,706.465 -73.426,-53.34 0.011,-38.359 L 898.004,418.07 1007.9,497.898 864.973,694.609 828.52,706.465"
             inkscape:connector-curvature="0"
             id="path42"
             style="fill:#8a4182;fill-opacity:1;fill-rule:nonzero;stroke:none" /><path
             d="m 812.086,828.586 28.055,-86.32 36.484,-11.836 231.225,75.117 -41.97,129.183 -231.239,-75.14 -22.555,-31.004"
             inkscape:connector-curvature="0"
             id="path44"
             style="fill:#8a4182;fill-opacity:1;fill-rule:nonzero;stroke:none" /><path
             d="m 736.301,1335.88 c -323.047,0 -585.875,-262.78 -585.875,-585.782 0,-323.118 262.828,-585.977 585.875,-585.977 323.019,0 585.809,262.859 585.809,585.977 0,323.002 -262.79,585.782 -585.809,585.782 l 0,0 z m 0,-118.61 c 257.972,0 467.189,-209.13 467.189,-467.172 0,-258.129 -209.217,-467.348 -467.189,-467.348 -258.074,0 -467.254,209.219 -467.254,467.348 0,258.042 209.18,467.172 467.254,467.172"
             inkscape:connector-curvature="0"
             id="path46"
             style="fill:#8a4182;fill-opacity:1;fill-rule:nonzero;stroke:none" /><path
             d="m 1091.13,619.883 -175.771,57.121 11.629,35.808 175.762,-57.121 -11.62,-35.808"
             inkscape:connector-curvature="0"
             id="path48"
             style="fill:#8a4182;fill-opacity:1;fill-rule:nonzero;stroke:none" /><path
             d="M 866.957,902.074 836.5,924.199 945.121,1073.73 975.586,1051.61 866.957,902.074"
             inkscape:connector-curvature="0"
             id="path50"
             style="fill:#8a4182;fill-opacity:1;fill-rule:nonzero;stroke:none" /><path
             d="M 607.465,903.445 498.855,1052.97 529.32,1075.1 637.93,925.566 607.465,903.445"
             inkscape:connector-curvature="0"
             id="path52"
             style="fill:#8a4182;fill-opacity:1;fill-rule:nonzero;stroke:none" /><path
             d="m 380.688,622.129 -11.626,35.801 175.758,57.09 11.621,-35.801 -175.753,-57.09"
             inkscape:connector-curvature="0"
             id="path54"
             style="fill:#8a4182;fill-opacity:1;fill-rule:nonzero;stroke:none" /><path
             d="m 716.289,376.59 37.6406,0 0,184.816 -37.6406,0 0,-184.816 z"
             inkscape:connector-curvature="0"
             id="path56"
             style="fill:#8a4182;fill-opacity:1;fill-rule:nonzero;stroke:none" /></g></g></g></g></svg>